<svg width="60" height="60" viewBox="0 0 60 60" fill="none" xmlns="http://www.w3.org/2000/svg">
<g clip-path="url(#clip0_115_389)">
<path d="M49.9221 0H20.6252C20.3172 0 20.0143 0.125392 19.7965 0.343247L8.07713 12.0625C7.85928 12.2801 7.73389 12.5834 7.73389 12.8912V52.9695C7.73389 54.2618 8.78531 55.3132 10.0777 55.3132H24.334L28.3303 59.3096C28.7908 59.7698 29.3954 60 29.9999 60C30.6045 60 31.2092 59.7698 31.6695 59.3095L35.6659 55.3132H49.9221C51.2145 55.3132 52.2659 54.2618 52.2659 52.9695V2.34378C52.2659 1.05142 51.2145 0 49.9221 0ZM19.4533 4.00119V11.7193H11.7351L19.4533 4.00119ZM30.0122 57.6522C30.0054 57.6593 29.9942 57.6589 29.9876 57.6522L22.9916 50.6563C22.9861 50.6509 22.9861 50.6475 22.9861 50.6436C22.9861 50.6339 22.9939 50.6262 23.0035 50.6262H25.3124C25.6232 50.6262 25.9212 50.5026 26.141 50.2829C26.3607 50.0632 26.4843 49.765 26.4843 49.4543V41.0161H33.5156V49.4544C33.5156 50.1016 34.0404 50.6263 34.6875 50.6263H36.9965C37.0037 50.6263 37.006 50.6286 37.0087 50.6313C37.0155 50.6381 37.0155 50.6491 37.0087 50.6559L30.0122 57.6522ZM49.9221 52.9695H38.0097L38.6661 52.3131C39.5866 51.3926 39.5866 49.8945 38.6661 48.9738C38.2201 48.5279 37.6272 48.2823 36.9965 48.2823H35.8595V41.0158C35.8595 39.7235 34.8081 38.672 33.5157 38.672H26.4844C25.192 38.672 24.1406 39.7235 24.1406 41.0158V48.2821H23.0036C21.7017 48.2821 20.6424 49.3414 20.6424 50.6434C20.6424 51.2802 20.8922 51.8773 21.34 52.3191L21.9903 52.9693H10.0778V14.063H19.4533C20.7456 14.063 21.7971 13.0116 21.7971 11.7193V2.34378H49.9221V52.9695Z" fill="#037966"/>
<path d="M44.0625 22.2666H21.211C20.5638 22.2666 20.0391 22.7913 20.0391 23.4385C20.0391 24.0857 20.5638 24.6104 21.211 24.6104H44.0624C44.7095 24.6104 45.2343 24.0857 45.2343 23.4385C45.2343 22.7913 44.7096 22.2666 44.0625 22.2666V22.2666Z" fill="#037966"/>
<path d="M44.0624 27.5403H15.937C15.2899 27.5403 14.7651 28.0649 14.7651 28.7122C14.7651 29.3594 15.2899 29.8841 15.937 29.8841H44.0624C44.7095 29.8841 45.2343 29.3594 45.2343 28.7122C45.2343 28.0649 44.7095 27.5403 44.0624 27.5403Z" fill="#037966"/>
<path d="M15.937 16.9929C15.2899 16.9929 14.7651 17.5176 14.7651 18.1648C14.7651 18.812 15.2899 19.3367 15.937 19.3367H44.0624C44.7095 19.3367 45.2343 18.812 45.2343 18.1648C45.2343 17.5176 44.7095 16.9929 44.0624 16.9929H15.937Z" fill="#037966"/>
<path d="M29.9997 32.814H15.937C15.2899 32.814 14.7651 33.3386 14.7651 33.9859C14.7651 34.6331 15.2899 35.1577 15.937 35.1577H29.9997C30.6468 35.1577 31.1716 34.6331 31.1716 33.9859C31.1716 33.3386 30.6468 32.814 29.9997 32.814Z" fill="#037966"/>
<path d="M15.938 24.6104C16.5851 24.6104 17.1099 24.0857 17.1099 23.4385C17.1099 22.7913 16.5851 22.2666 15.938 22.2666H15.937C15.2899 22.2666 14.7656 22.7913 14.7656 23.4385C14.7656 24.0857 15.2909 24.6104 15.938 24.6104Z" fill="#037966"/>
</g>
<defs>
<clipPath id="clip0_115_389">
<rect width="60" height="60" fill="white"/>
</clipPath>
</defs>
</svg>
