<svg width="14" height="20" viewBox="0 0 14 20" fill="none" xmlns="http://www.w3.org/2000/svg">
<path d="M7 0C3.1402 0 0 3.1402 0 7C0 8.3041 0.361239 9.57678 1.04491 10.6809L6.60154 19.6354C6.70798 19.8069 6.89551 19.9111 7.09718 19.9111C7.09874 19.9111 7.10026 19.9111 7.10181 19.9111C7.30524 19.9095 7.49315 19.8021 7.59765 19.6275L13.0127 10.5863C13.6586 9.50553 14 8.26541 14 7C14 3.1402 10.8598 0 7 0ZM12.0115 9.98737L7.08836 18.2072L2.03649 10.0662C1.46743 9.14721 1.15889 8.08694 1.15889 7C1.15889 3.7835 3.7835 1.15889 7 1.15889C10.2165 1.15889 12.8372 3.7835 12.8372 7C12.8372 8.05471 12.549 9.08787 12.0115 9.98737Z" fill="#045547"/>
<path d="M7 3.5C5.0701 3.5 3.5 5.0701 3.5 7C3.5 8.91757 5.04455 10.5 7 10.5C8.97956 10.5 10.5 8.89649 10.5 7C10.5 5.0701 8.9299 3.5 7 3.5ZM7 9.34111C5.70667 9.34111 4.65889 8.28983 4.65889 7C4.65889 5.7134 5.7134 4.65889 7 4.65889C8.2866 4.65889 9.33722 5.7134 9.33722 7C9.33722 8.27101 8.31382 9.34111 7 9.34111Z" fill="#045547"/>
</svg>
