<svg width="17" height="13" viewBox="0 0 17 13" fill="none" xmlns="http://www.w3.org/2000/svg">
<path d="M15.5059 0H1.49414C0.671301 0 0 0.67057 0 1.49414V11.4551C0 12.2759 0.668312 12.9492 1.49414 12.9492H15.5059C16.3266 12.9492 17 12.2809 17 11.4551V1.49414C17 0.673359 16.3317 0 15.5059 0ZM15.2995 0.996094L8.53168 7.76399L1.70528 0.996094H15.2995ZM0.996094 11.2488V1.69565L5.79325 6.45167L0.996094 11.2488ZM1.70043 11.9531L6.50061 7.15295L8.18258 8.82048C8.37728 9.01352 8.69148 9.01289 8.88539 8.81895L10.5254 7.17895L15.2996 11.9531H1.70043ZM16.0039 11.2488L11.2297 6.47461L16.0039 1.7004V11.2488Z" fill="#045547"/>
</svg>
