<svg width="17" height="17" viewBox="0 0 17 17" fill="none" xmlns="http://www.w3.org/2000/svg">
<path d="M16.5106 12.7059L14.0535 10.2478C13.7235 9.91951 13.2817 9.73863 12.8095 9.73863C12.3181 9.73863 11.8542 9.93209 11.5034 10.2831L10.547 11.2393C9.80377 10.8262 8.81597 10.2581 7.7904 9.23249C6.76603 8.20777 6.1978 7.22285 5.78259 6.47563L6.73994 5.51899C7.45171 4.80574 7.46627 3.66146 6.7725 2.96833L4.31594 0.511693C3.98688 0.181723 3.54502 0 3.07166 0C2.59126 0 2.13681 0.184958 1.78806 0.521609C1.57709 0.691517 0.518325 1.62615 0.123725 3.55365C-0.428757 6.25158 0.84063 8.84738 4.50519 12.5134C8.5988 16.6058 12.0935 16.9239 13.0671 16.9239C13.2698 16.9239 13.3921 16.9113 13.4247 16.9075C15.3339 16.6838 16.0174 15.8359 16.5165 15.2168C17.1633 14.4145 17.161 13.3587 16.5106 12.7059ZM15.6953 14.5547C15.2261 15.1366 14.7831 15.6861 13.302 15.8597C13.3012 15.8598 13.2202 15.8689 13.0671 15.8689C12.1961 15.8689 9.05796 15.5731 5.25114 11.7675C1.87175 8.38668 0.685631 6.06824 1.15717 3.76519C1.50134 2.08398 2.41509 1.36939 2.45061 1.34225L2.48211 1.31897L2.50975 1.29126C2.66229 1.13886 2.8618 1.05489 3.07159 1.05489C3.26259 1.05489 3.43925 1.12648 3.5695 1.25715L6.02662 3.71435C6.30933 3.99678 6.29428 4.47204 5.9935 4.77346L4.91083 5.85522L4.89304 5.87385C4.61089 6.18463 4.64408 6.60461 4.7995 6.87811C5.24797 7.68743 5.86227 8.79584 7.04431 9.97823C8.22242 11.1563 9.32921 11.7701 10.1363 12.2178C10.2171 12.2631 10.3839 12.3392 10.5927 12.3392C10.8393 12.3392 11.0656 12.2349 11.2332 12.0446L12.2493 11.0288C12.401 10.8771 12.5999 10.7935 12.8094 10.7935C13.0008 10.7935 13.1784 10.8653 13.3083 10.9945L15.7638 13.451C16.0757 13.764 15.9469 14.2426 15.6953 14.5547Z" fill="#045547"/>
<path d="M10.2992 2.58468C11.2055 2.68898 12.2726 3.23794 13.0178 3.98319C13.7699 4.73533 14.3202 5.81329 14.4196 6.72943C14.4489 6.99969 14.6775 7.19998 14.9433 7.19998C14.9623 7.19998 14.9816 7.19893 15.0009 7.19689C15.2905 7.16545 15.4998 6.90524 15.4683 6.61564C15.3426 5.45758 14.6895 4.16309 13.7638 3.23731C12.8467 2.32019 11.5654 1.66862 10.4198 1.53675C10.1306 1.50321 9.86888 1.71109 9.83555 2.00041C9.80221 2.28974 10.0097 2.55135 10.2992 2.58468Z" fill="#045547"/>
<path d="M9.8061 4.79377C10.2963 4.85024 10.9746 5.21382 11.419 5.65822C11.8672 6.10648 12.2315 6.79131 12.2852 7.28676C12.3145 7.55709 12.5431 7.75738 12.8089 7.75738C12.8279 7.75738 12.8471 7.75633 12.8663 7.75429C13.1559 7.72285 13.3653 7.46265 13.3339 7.17304C13.2422 6.32716 12.6806 5.42804 12.1648 4.91227C11.6537 4.40107 10.7634 3.84218 9.92671 3.74577C9.63703 3.71208 9.3757 3.92003 9.34237 4.20936C9.3091 4.49875 9.51671 4.76043 9.8061 4.79377Z" fill="#045547"/>
</svg>
